<?xml version="1.0" encoding="UTF-8" standalone="no"?>
<!-- Created with Inkscape (http://www.inkscape.org/) -->

<svg
   xmlns:dc="http://purl.org/dc/elements/1.1/"
   xmlns:cc="http://creativecommons.org/ns#"
   xmlns:rdf="http://www.w3.org/1999/02/22-rdf-syntax-ns#"
   xmlns:svg="http://www.w3.org/2000/svg"
   xmlns="http://www.w3.org/2000/svg"
   xmlns:sodipodi="http://sodipodi.sourceforge.net/DTD/sodipodi-0.dtd"
   xmlns:inkscape="http://www.inkscape.org/namespaces/inkscape"
   width="210mm"
   height="297mm"
   viewBox="0 0 210 297"
   version="1.1"
   id="svg8"
   inkscape:version="0.92.3 (2405546, 2018-03-11)"
   sodipodi:docname="git.svg">
  <defs
     id="defs2" />
  <sodipodi:namedview
     id="base"
     pagecolor="#ffffff"
     bordercolor="#666666"
     borderopacity="1.0"
     inkscape:pageopacity="0.0"
     inkscape:pageshadow="2"
     inkscape:zoom="5.6"
     inkscape:cx="207.03102"
     inkscape:cy="705.715"
     inkscape:document-units="mm"
     inkscape:current-layer="layer1"
     showgrid="true"
     inkscape:window-width="3840"
     inkscape:window-height="2049"
     inkscape:window-x="0"
     inkscape:window-y="55"
     inkscape:window-maximized="1">
    <inkscape:grid
       type="xygrid"
       id="grid815" />
  </sodipodi:namedview>
  <metadata
     id="metadata5">
    <rdf:RDF>
      <cc:Work
         rdf:about="">
        <dc:format>image/svg+xml</dc:format>
        <dc:type
           rdf:resource="http://purl.org/dc/dcmitype/StillImage" />
        <dc:title></dc:title>
      </cc:Work>
    </rdf:RDF>
  </metadata>
  <g
     inkscape:label="Layer 1"
     inkscape:groupmode="layer"
     id="layer1">
    <g
       id="g853"
       inkscape:export-xdpi="96"
       inkscape:export-ydpi="96">
      <path
         inkscape:connector-curvature="0"
         id="path817"
         d="m 58.208333,98.5625 -5.291667,5.29167 5.291667,5.29166 5.291666,-5.29166 h -5.291666 v 1.32291 h 2.645833 l -2.645833,2.64584 -3.96875,-3.96875 5.291666,-5.29167 z"
         style="fill:none;stroke:#000000;stroke-width:0.26458332px;stroke-linecap:butt;stroke-linejoin:miter;stroke-opacity:1" />
      <path
         inkscape:connector-curvature="0"
         id="path819"
         d="m 64.822916,103.85417 v 5.29166 h 1.322917 v -5.29166 z"
         style="fill:none;stroke:#000000;stroke-width:0.26458332px;stroke-linecap:butt;stroke-linejoin:miter;stroke-opacity:1" />
      <path
         inkscape:connector-curvature="0"
         id="path821"
         d="m 64.822916,99.885417 v 1.322913 h 1.322917 v -1.322913 z"
         style="fill:none;stroke:#000000;stroke-width:0.26458332px;stroke-linecap:butt;stroke-linejoin:miter;stroke-opacity:1" />
      <path
         inkscape:connector-curvature="0"
         id="path823"
         d="m 68.791666,98.5625 v 2.64583 H 67.46875 l 1.322916,1.32292 v 5.29167 l 1.322917,1.32291 1.322917,-1.32291 V 106.5 l -1.322917,1.32292 v -5.29167 H 71.4375 v -1.32292 H 70.114583 V 98.5625 Z"
         style="fill:none;stroke:#000000;stroke-width:0.26458332px;stroke-linecap:butt;stroke-linejoin:miter;stroke-opacity:1" />
      <path
         transform="scale(0.26458333)"
         inkscape:connector-curvature="0"
         id="path825"
         d="m 209.67388,402.75111 -10.26669,-10.26785 10.1774,-10.17858 10.17739,-10.17857 h 3.12501 3.125 l -10.22275,10.22392 -10.22276,10.22391 7.1887,7.18706 7.18871,7.18706 4.46187,-4.46455 4.46186,-4.46454 h -4.68616 -4.68616 v -2.94643 -2.94643 h 10.75836 10.75835 l -10.44528,10.44643 c -5.7449,5.74554 -10.48598,10.44643 -10.53572,10.44643 -0.0498,0 -4.71045,-4.62054 -10.35713,-10.26786 z m 19.73214,-0.26786 9.46302,-9.46428 h -9.24044 -9.24044 v 2.05357 2.05357 h 5.31214 5.31213 l -5.49076,5.49076 -5.49076,5.49077 -7.81201,-7.81201 -7.81201,-7.81202 9.73109,-9.73232 9.73109,-9.73232 h -1.87378 -1.87378 l -9.77739,9.77618 -9.77739,9.77617 9.68689,9.68811 c 5.32778,5.32846 9.68744,9.68811 9.68813,9.68811 7.1e-4,0 4.2596,-4.25893 9.46427,-9.46429 z"
         style="opacity:1;vector-effect:none;fill:#66ff00;fill-opacity:1;fill-rule:nonzero;stroke:#2a6200;stroke-width:0.17885263;stroke-linecap:square;stroke-linejoin:bevel;stroke-miterlimit:4;stroke-dasharray:none;stroke-dashoffset:0;stroke-opacity:1;paint-order:fill markers stroke" />
      <path
         transform="scale(0.26458333)"
         inkscape:connector-curvature="0"
         id="path827"
         d="m 210.38816,402.03682 -9.55233,-9.55357 9.64162,-9.64286 9.64161,-9.64285 h 1.69643 1.69643 l -9.5976,9.59883 c -5.27867,5.27935 -9.59759,9.67925 -9.59759,9.77755 0,0.2337 15.39308,15.62362 15.62682,15.62362 0.0984,0 2.70917,-2.53125 5.80175,-5.625 l 5.62288,-5.625 h -5.40073 -5.40072 v -1.875 -1.875 h 8.97256 8.97257 l -9.19513,9.19643 c -5.05732,5.05803 -9.23588,9.19643 -9.28569,9.19643 -0.0498,0 -4.38911,-4.29911 -9.64288,-9.55358 z"
         style="opacity:1;vector-effect:none;fill:#66ff00;fill-opacity:1;fill-rule:nonzero;stroke:#2a6200;stroke-width:0.17885263;stroke-linecap:square;stroke-linejoin:bevel;stroke-miterlimit:4;stroke-dasharray:none;stroke-dashoffset:0;stroke-opacity:1;paint-order:fill markers stroke" />
      <path
         transform="scale(0.26458333)"
         inkscape:connector-curvature="0"
         id="path829"
         d="m 245.56673,402.48325 v -9.46428 h 1.96429 1.96428 v 9.46428 9.46429 h -1.96428 -1.96429 z"
         style="opacity:1;vector-effect:none;fill:#ff6600;fill-opacity:1;fill-rule:nonzero;stroke:#2a6200;stroke-width:0.17885263;stroke-linecap:square;stroke-linejoin:bevel;stroke-miterlimit:4;stroke-dasharray:none;stroke-dashoffset:0;stroke-opacity:1;paint-order:fill markers stroke" />
      <path
         transform="scale(0.26458333)"
         inkscape:connector-curvature="0"
         id="path831"
         d="m 245.56673,379.98325 v -1.96428 h 1.96429 1.96428 v 1.96428 1.96429 h -1.96428 -1.96429 z"
         style="opacity:1;vector-effect:none;fill:#ff6600;fill-opacity:1;fill-rule:nonzero;stroke:#2a6200;stroke-width:0.17885263;stroke-linecap:square;stroke-linejoin:bevel;stroke-miterlimit:4;stroke-dasharray:none;stroke-dashoffset:0;stroke-opacity:1;paint-order:fill markers stroke" />
      <path
         transform="scale(0.26458333)"
         inkscape:connector-curvature="0"
         id="path833"
         d="m 244.4953,380.07254 v -2.94643 h 2.94643 2.94643 v 2.94643 2.94643 h -2.94643 -2.94643 z m 5.08929,-0.0893 v -2.05357 h -2.05357 -2.05357 l -0.0504,2.10393 -0.0504,2.10393 2.10393,-0.0504 2.10393,-0.0503 z"
         style="opacity:1;vector-effect:none;fill:#ff6600;fill-opacity:1;fill-rule:nonzero;stroke:#2a6200;stroke-width:0.17885263;stroke-linecap:square;stroke-linejoin:bevel;stroke-miterlimit:4;stroke-dasharray:none;stroke-dashoffset:0;stroke-opacity:1;paint-order:fill markers stroke" />
      <path
         transform="scale(0.26458333)"
         inkscape:connector-curvature="0"
         id="path835"
         d="m 244.4953,402.57254 v -10.44643 h 2.94643 2.94643 v 10.44643 10.44643 h -2.94643 -2.94643 z m 5.08929,-0.0893 v -9.55357 h -2.05357 -2.05357 l -0.0462,9.6039 -0.0462,9.60389 2.09977,-0.0503 2.09977,-0.0503 z"
         style="opacity:1;vector-effect:none;fill:#ff6600;fill-opacity:1;fill-rule:nonzero;stroke:#2a6200;stroke-width:0.17885263;stroke-linecap:square;stroke-linejoin:bevel;stroke-miterlimit:4;stroke-dasharray:none;stroke-dashoffset:0;stroke-opacity:1;paint-order:fill markers stroke" />
      <path
         transform="scale(0.26458333)"
         inkscape:connector-curvature="0"
         id="path837"
         d="m 262.75155,409.40032 -2.18482,-2.19008 v -9.99474 -9.99474 l -2.09542,-2.1009 -2.09543,-2.10089 h 2.09543 2.09542 v -5 -5 h 1.96429 1.96428 v 5 5 h 2.5 2.5 v 1.96428 1.96429 h -2.5 -2.5 v 10.93511 10.93511 l 2.5,-2.49522 2.5,-2.49522 v 1.69672 1.69672 l -2.19008,2.18482 c -1.20454,1.20165 -2.2303,2.18482 -2.27946,2.18482 -0.0492,0 -1.07256,-0.98554 -2.27421,-2.19008 z"
         style="opacity:1;vector-effect:none;fill:#ff00ff;fill-opacity:1;fill-rule:nonzero;stroke:#2a6200;stroke-width:0.17885263;stroke-linecap:square;stroke-linejoin:bevel;stroke-miterlimit:4;stroke-dasharray:none;stroke-dashoffset:0;stroke-opacity:1;paint-order:fill markers stroke" />
      <path
         transform="scale(0.26458333)"
         inkscape:connector-curvature="0"
         id="path839"
         d="m 262.21636,410.29366 -2.72106,-2.72531 v -9.99581 -9.99581 l -2.72105,-2.72531 -2.72105,-2.72531 h 2.72105 2.72105 v -5 -5 h 2.94643 2.94643 v 5 5 h 2.5 2.5 v 2.94643 2.94643 h -2.5 -2.5 v 9.23868 9.23868 l 2.5,-2.49522 2.5,-2.49522 v 3.12485 3.12484 l -2.63609,2.63169 c -1.44985,1.44744 -2.67627,2.6317 -2.72538,2.6317 -0.0491,0 -1.31375,-1.22639 -2.81033,-2.72531 z m 7.45751,-4.81685 c 0,-0.95896 -0.0592,-1.74356 -0.13153,-1.74356 -0.0723,0 -1.19734,1.06362 -2.5,2.36359 l -2.36847,2.36359 v -10.66212 -10.66212 l 2.45536,-0.0497 2.45536,-0.0497 v -2.05358 -2.05357 l -2.45254,-0.0497 -2.45254,-0.0497 -0.0475,-4.95033 -0.0475,-4.95034 h -2.05357 -2.05357 l -0.0475,4.95536 -0.0475,4.95536 h -2.04021 c -1.12211,0 -2.08086,0.0658 -2.13055,0.14617 -0.0497,0.0804 0.86968,1.1037 2.04303,2.274 l 2.13338,2.12782 v 10.0003 10.00031 l 2.2743,2.27936 2.2743,2.27936 2.36856,-2.36368 2.36855,-2.36368 z"
         style="opacity:1;vector-effect:none;fill:#ff00ff;fill-opacity:1;fill-rule:nonzero;stroke:#2a6200;stroke-width:0.17885263;stroke-linecap:square;stroke-linejoin:bevel;stroke-miterlimit:4;stroke-dasharray:none;stroke-dashoffset:0;stroke-opacity:1;paint-order:fill markers stroke" />
    </g>
  </g>
</svg>
